# xmcd
#
# Track frame offsets:
#	150
#	15230
#	31737
#	48804
#	60806
#	78320
#	94116
#	108833
#	127798
#	140551
#	153947
#	170075
#	181532
#
# Disc length: 2639 seconds
#
# Revision: 1
# Processed by: cddbd v1.5.2PL0 Copyright (c) Steve Scherf et al.
# Submitted via: audiograbber 1.83.01
#
DISCID=850a4d0d
DTITLE=The Sunny Cowgirls - Summer
DYEAR=2010
DGENRE=Country
TTITLE0=Summer
TTITLE1=Naughty Side
TTITLE2=Good Spot Here
TTITLE3=Get On It
TTITLE4=Rockstar
TTITLE5=Killalottametres
TTITLE6=Not My Guy
TTITLE7=Twelve Trees (featuring Sara Storer)
TTITLE8=Born To Be Single
TTITLE9=Bags Not Driving
TTITLE10=Remedy
TTITLE11=Bee Sting
TTITLE12=Soft As Wool
EXTD=
EXTT0=
EXTT1=
EXTT2=
EXTT3=
EXTT4=
EXTT5=
EXTT6=
EXTT7=
EXTT8=
EXTT9=
EXTT10=
EXTT11=
EXTT12=
PLAYORDER=
